<svg width="533" height="129" viewBox="0 0 533 129" fill="none" xmlns="http://www.w3.org/2000/svg">
<path d="M533 62C533 96.2417 505.242 124 471 124C436.758 124 409 96.2417 409 62C409 27.7583 436.758 0 471 0C505.242 0 533 27.7583 533 62Z" fill="#C32929"/>
<path d="M67.8548 6.86387H65.6286V83.5969C65.6286 87.6178 64.905 91.1361 63.4577 94.1518C62.1218 97.0558 60.0622 99.3455 57.2789 101.021C54.607 102.696 51.2115 103.534 47.0923 103.534C42.7505 103.534 39.1879 102.696 36.4047 101.021C33.7328 99.3455 31.6732 97.0558 30.2259 94.1518C28.7786 91.1361 28.055 87.6178 28.055 83.5969V6.86387H0V85.6073C0 92.9791 1.16896 99.4014 3.50687 104.874C5.84479 110.236 9.129 114.759 13.3595 118.445C17.7014 122.019 22.7112 124.644 28.389 126.319C34.0668 128.106 40.2455 129 46.9253 129C53.3824 129 59.4498 128.106 65.1276 126.319C70.9168 124.644 75.9266 122.019 80.1571 118.445C84.4989 114.759 87.8388 110.236 90.1767 104.874C92.626 99.4014 93.8506 92.9791 93.8506 85.6073V32.9446L67.8548 6.86387Z" fill="#222222"/>
<path d="M140.972 65.5026C140.972 60.2531 141.751 55.5061 143.31 51.2618C143.696 50.2082 144.124 49.1891 144.594 48.2044L123.657 27.1989C120.534 31.2501 117.956 35.7527 115.923 40.7068C112.805 48.1902 111.247 56.4555 111.247 65.5026C111.247 74.5497 112.75 82.8709 115.756 90.466C118.761 98.0611 123.103 104.651 128.781 110.236C134.459 115.82 141.139 120.176 148.82 123.304C156.502 126.319 164.963 127.827 174.203 127.827C183.332 127.827 191.682 126.319 199.253 123.304C203.981 121.379 208.33 118.988 212.3 116.131L192.006 95.7712C190.61 96.674 189.129 97.4745 187.563 98.1728C183.555 99.9599 179.102 100.853 174.203 100.853C169.194 100.853 164.629 99.9599 160.51 98.1728C156.502 96.3857 152.995 93.9284 149.989 90.801C147.095 87.6736 144.868 83.9319 143.31 79.5759C141.751 75.2199 140.972 70.5288 140.972 65.5026Z" fill="#222222"/>
<path d="M204.596 79.7435C204.455 80.1279 204.308 80.5078 204.156 80.8831L225.81 102.608C228.461 98.8952 230.686 94.8479 232.484 90.466C235.602 82.8709 237.16 74.5497 237.16 65.5026C237.16 56.4555 235.546 48.1902 232.317 40.7068C229.089 33.1117 224.636 26.5777 218.958 21.1047C213.391 15.6318 206.767 11.4433 199.086 8.53926C191.515 5.63525 183.221 4.18324 174.203 4.18324C165.186 4.18324 156.836 5.63525 149.154 8.53926C145.07 10.0833 141.269 11.9905 137.751 14.2609L157.678 34.2532C158.593 33.7401 159.536 33.2665 160.51 32.8325C164.629 31.0454 169.194 30.1518 174.203 30.1518C179.213 30.1518 183.722 31.0454 187.73 32.8325C191.849 34.6195 195.356 37.0768 198.251 40.2042C201.145 43.3316 203.316 47.0733 204.763 51.4293C206.211 55.6736 206.934 60.3647 206.934 65.5026C206.934 70.6405 206.155 75.3874 204.596 79.7435Z" fill="#222222"/>
<path d="M285.136 64.4974L317.032 113.251L348.927 64.4974L356.108 124.141H386L366.796 1L317.032 72.3717L267.1 1L248.397 124.141H277.955L285.136 64.4974Z" fill="#222222"/>
</svg>
